<svg width="25" height="24" viewBox="0 0 25 24" fill="none" xmlns="http://www.w3.org/2000/svg"><g clip-path="url(#clip0_429_8903)"><path d="M6.41431 17.7524L15.125 13.5557L18.377 5.78979L10.6111 9.04175L6.41431 17.7524ZM13.2647 12.7866L9.62746 14.5386L11.3809 10.8999L13.2647 12.7866Z" fill="#0db08a"/><path d="M12.5 0.949951C6.40699 0.949951 1.44995 5.90699 1.44995 12C1.44995 18.0938 6.40699 23.0508 12.5 23.0508C18.5938 23.0508 23.5508 18.0938 23.5508 12C23.5435 5.91357 18.5864 0.956551 12.5 0.949951ZM12.5 21.5493C7.23463 21.5493 2.94995 17.2661 2.94995 12C2.94995 6.73389 7.23389 2.44995 12.5 2.44995C17.7661 2.44995 22.0493 6.73389 22.0493 12C22.0435 17.2603 17.7602 21.5435 12.5 21.5493Z" fill="#0db08a"/></g><defs><clipPath id="clip0_429_8903"><rect width="24" height="24" fill="white" transform="translate(0.5)"/></clipPath></defs></svg>
