<svg width="25" height="24" viewBox="0 0 25 24" fill="none" xmlns="http://www.w3.org/2000/svg"><g clip-path="url(#clip0_1558_690)"><path d="M22.7857 7.98167C22.7857 4.21795 20.2409 3.42766 18.098 3.42766C16.1026 3.42766 13.8526 5.58424 13.1557 6.41395C12.8343 6.80224 12.1649 6.80224 11.8434 6.41395C11.1474 5.58338 8.89743 3.42766 6.90115 3.42766C4.75829 3.42766 2.21343 4.21795 2.21343 7.98167C2.21343 10.4322 4.69143 12.7097 4.718 12.7362L12.4991 20.2362L20.2674 12.75C20.3077 12.7097 22.7857 10.4331 22.7857 7.98167ZM24.5 7.98167C24.5 11.196 21.554 13.8882 21.4331 14.0082L13.0897 22.044C12.9294 22.2042 12.7143 22.2848 12.5 22.2848C12.2857 22.2848 12.0714 22.2042 11.9103 22.044L3.55315 13.9817C3.446 13.8882 0.499146 11.196 0.499146 7.98167C0.499146 4.05766 2.89657 1.71338 6.90115 1.71338C9.24457 1.71338 11.4414 3.56138 12.4991 4.60624C13.5569 3.56138 15.7537 1.71338 18.0971 1.71338C22.1017 1.71338 24.5 4.05681 24.5 7.98167Z" fill="#0db08a"/></g><defs><clipPath id="clip0_1558_690"><rect width="24" height="24" fill="white" transform="translate(0.5)"/></clipPath></defs></svg>